<svg width="1400" height="1200" viewBox="0 0 1400 1200" fill="none" xmlns="http://www.w3.org/2000/svg">
    <rect width="1400" height="1200" fill="white"/>
    <path d="M431.847 633.659C431.22 632.841 431.342 632.237 431.418 631.679C431.94 627.58 430.256 624.514 426.865 622.401C422.232 619.515 417.087 617.779 411.925 616.124C403.703 613.488 395.714 610.37 388.676 605.208C385.732 603.048 383.468 600.33 381.674 597.189C379.659 593.67 379.897 590.099 381.749 586.662C382.986 584.368 384.513 582.202 386.569 580.536C392.062 576.077 396.37 570.7 399.453 564.33C399.86 563.488 400.086 562.484 401.114 561.868C402.089 562.809 401.723 564.034 401.689 565.085C401.52 569.875 402.176 574.561 403.692 579.079C406.212 586.592 411.745 591.394 418.527 594.982C423.562 597.648 428.683 600.162 433.125 603.826C437.271 607.246 439.849 611.502 440.505 616.85C440.824 619.433 439.878 621.826 438.978 624.16C437.532 627.923 435.128 631.006 431.859 633.659H431.847Z" fill="#FF5722"/>
    <path d="M411.862 588.224C412.814 585.28 413.604 582.818 414.016 580.257C415.27 572.482 413.476 565.573 408.627 559.325C404.336 553.803 398.658 550.151 392.474 547.387C381.639 542.544 371.466 536.674 362.338 529.12C357.182 524.846 352.781 519.824 349.825 513.704C349.39 512.804 348.769 511.857 349.372 510.539C352.206 512.2 354.749 514.087 357.513 515.62C364.835 519.69 372.656 522.32 380.745 524.364C389.82 526.658 399.116 528.185 407.814 531.837C412.198 533.678 416.437 535.762 419.851 539.194C423.927 543.293 425.948 548.235 426.186 554C426.598 563.953 423.178 572.761 418.249 581.134C417.267 582.795 416.118 584.362 415.009 585.942C414.353 586.871 413.667 587.817 411.867 588.218L411.862 588.224Z" fill="#FF5722"/>
    <path d="M496.764 551.806C496.473 554.233 495.457 556.004 494.569 557.751C487.996 570.688 478.677 581.035 465.554 587.573C456.96 591.859 447.844 594.135 438.159 594.059C432.045 594.013 425.983 593.81 420.118 591.864C419.567 591.684 419.015 591.499 418.481 591.272C417.134 590.703 416.739 589.971 417.761 588.624C419.811 585.924 421.558 583.021 423.173 580.048C426.523 573.882 428.735 567.338 429.258 560.103C430.611 560.446 430.959 561.502 431.47 562.35C436.934 571.397 446.625 575.653 456.978 573.975C469.044 572.012 478.984 565.875 488.42 558.628C491.155 556.526 493.768 554.268 496.764 551.811V551.806Z" fill="#FF5722"/>
    <path d="M392.584 683.403C391.58 679.234 392.044 675.326 392.253 671.366C392.578 665.142 393.699 659.092 395.354 653.123C397.566 645.162 401.393 638.055 407.344 632.266C411.194 628.526 415.717 625.774 420.856 624.05C422.412 623.527 423.62 623.794 424.909 624.7C428.485 627.214 429.833 631.372 428.253 635.419C427.249 637.991 425.576 640.093 423.562 641.951C415.102 649.749 406.589 657.483 400.516 667.459C397.891 671.773 395.871 676.354 393.931 680.982C393.606 681.754 393.641 682.712 392.567 683.403H392.584Z" fill="#FF5722"/>
    <path d="M335.419 690.458C334.914 689.854 334.972 689.361 335.054 688.89C337.249 676.459 340.541 664.393 346.887 653.343C351.59 645.156 357.664 638.287 366.02 633.665C369.863 631.54 374.021 630.309 378.341 629.577C379.781 629.333 380.35 629.966 380.147 631.343C380.065 631.912 379.88 632.469 379.7 633.021C378.544 636.51 377.075 639.872 375.681 643.269C373.44 648.727 369.759 652.89 364.974 656.27C360.399 659.504 356.137 663.197 352.229 667.174C346.266 673.248 341.081 679.995 337.301 687.706C336.836 688.652 336.407 689.616 335.419 690.464V690.458Z" fill="#FF5722"/>
    <path d="M420.838 527.796C420.92 524.155 421.628 520.834 424.328 518.204C427.272 515.341 430.773 514.969 434.385 517.013C438.49 519.342 440.441 523.174 441.631 527.424C442.572 530.792 442.746 534.27 441.509 537.696C440.656 540.042 439.355 542.039 437.253 543.392C433.258 545.964 428.973 544.6 425.46 540.558C422.342 536.97 420.862 532.551 420.838 527.79V527.796Z" fill="#FF5722"/>
    <path d="M386.122 607.484C391.295 611.13 396.37 613.418 401.712 615.177C404.214 616.002 404.435 616.553 403.251 618.667C397.537 628.886 390.418 637.915 380.82 644.802C379.88 645.475 378.881 646.062 377.9 646.677C377.662 646.828 377.4 646.939 376.762 646.503C382.725 634.449 385.692 621.518 386.122 607.49V607.484Z" fill="#FF5722"/>
    <path d="M584.892 544.551V652H564.598V544.551H584.892ZM628.211 590.97V606.984H579.579V590.97H628.211ZM633.893 544.551V560.565H579.579V544.551H633.893ZM666.881 572.151V652H647.324V572.151H666.881ZM645.996 551.267C645.996 548.364 646.98 545.953 648.948 544.035C650.965 542.116 653.671 541.156 657.066 541.156C660.46 541.156 663.142 542.116 665.11 544.035C667.127 545.953 668.135 548.364 668.135 551.267C668.135 554.12 667.127 556.506 665.11 558.425C663.142 560.344 660.46 561.303 657.066 561.303C653.671 561.303 650.965 560.344 648.948 558.425C646.98 556.506 645.996 554.12 645.996 551.267ZM723.262 572.151V586.173H677.508V572.151H723.262ZM689.758 552.521H709.314V628.975C709.314 631.337 709.634 633.157 710.274 634.436C710.913 635.715 711.873 636.576 713.152 637.019C714.431 637.462 715.956 637.683 717.727 637.683C719.006 637.683 720.187 637.61 721.269 637.462C722.352 637.314 723.262 637.167 724 637.019L724.074 651.631C722.45 652.172 720.605 652.615 718.539 652.959C716.522 653.304 714.234 653.476 711.676 653.476C707.297 653.476 703.46 652.738 700.163 651.262C696.867 649.737 694.309 647.302 692.488 643.956C690.668 640.561 689.758 636.084 689.758 630.525V552.521ZM769.828 652H746.656L746.803 636.06H769.828C776.076 636.06 781.316 634.682 785.547 631.927C789.778 629.123 792.976 625.113 795.14 619.898C797.305 614.634 798.388 608.337 798.388 601.006V595.471C798.388 589.813 797.773 584.82 796.543 580.49C795.313 576.161 793.492 572.52 791.082 569.568C788.72 566.617 785.793 564.378 782.3 562.853C778.807 561.328 774.797 560.565 770.271 560.565H746.213V544.551H770.271C777.454 544.551 783.997 545.756 789.901 548.167C795.854 550.578 800.995 554.046 805.324 558.573C809.703 563.05 813.049 568.412 815.361 574.66C817.722 580.909 818.903 587.895 818.903 595.619V601.006C818.903 608.681 817.722 615.667 815.361 621.964C813.049 628.213 809.703 633.575 805.324 638.052C800.995 642.529 795.829 645.973 789.827 648.384C783.825 650.795 777.159 652 769.828 652ZM758.02 544.551V652H737.726V544.551H758.02ZM870.561 653.476C864.51 653.476 859.074 652.492 854.252 650.524C849.431 648.556 845.323 645.826 841.928 642.333C838.582 638.79 836 634.682 834.179 630.008C832.408 625.285 831.523 620.218 831.523 614.806V611.854C831.523 605.704 832.408 600.12 834.179 595.102C835.95 590.035 838.459 585.681 841.707 582.04C844.954 578.399 848.84 575.595 853.367 573.627C857.893 571.659 862.886 570.675 868.347 570.675C874.005 570.675 878.999 571.635 883.328 573.553C887.658 575.423 891.274 578.08 894.176 581.524C897.079 584.967 899.268 589.1 900.744 593.922C902.22 598.694 902.958 603.983 902.958 609.788V617.979H840.378V604.548H883.771V603.072C883.673 599.973 883.082 597.144 882 594.586C880.918 591.978 879.245 589.912 876.982 588.387C874.719 586.812 871.791 586.025 868.2 586.025C865.297 586.025 862.763 586.665 860.599 587.944C858.483 589.174 856.712 590.945 855.285 593.257C853.908 595.52 852.875 598.226 852.186 601.375C851.497 604.524 851.153 608.017 851.153 611.854V614.806C851.153 618.152 851.595 621.251 852.481 624.105C853.416 626.958 854.769 629.443 856.54 631.558C858.36 633.624 860.525 635.248 863.034 636.429C865.592 637.56 868.495 638.126 871.742 638.126C875.826 638.126 879.515 637.339 882.812 635.765C886.157 634.141 889.06 631.755 891.52 628.606L901.335 638.79C899.662 641.25 897.399 643.612 894.545 645.875C891.741 648.138 888.346 649.983 884.361 651.41C880.376 652.787 875.776 653.476 870.561 653.476ZM959.93 630.156C959.93 628.483 959.487 626.983 958.602 625.654C957.716 624.326 956.043 623.121 953.583 622.038C951.173 620.907 947.63 619.849 942.956 618.865C938.824 617.979 935.011 616.872 931.518 615.544C928.025 614.216 925.024 612.617 922.515 610.747C920.006 608.829 918.038 606.59 916.611 604.032C915.233 601.424 914.545 598.423 914.545 595.028C914.545 591.732 915.258 588.633 916.685 585.73C918.111 582.778 920.178 580.195 922.884 577.981C925.59 575.718 928.886 573.947 932.772 572.668C936.659 571.34 941.038 570.675 945.908 570.675C952.698 570.675 958.528 571.782 963.398 573.996C968.318 576.21 972.082 579.26 974.689 583.147C977.297 586.985 978.601 591.314 978.601 596.135H959.118C959.118 594.02 958.626 592.101 957.642 590.379C956.707 588.657 955.256 587.28 953.288 586.247C951.32 585.164 948.836 584.623 945.835 584.623C943.129 584.623 940.841 585.066 938.971 585.951C937.151 586.837 935.774 587.993 934.839 589.42C933.904 590.847 933.437 592.421 933.437 594.143C933.437 595.422 933.683 596.578 934.175 597.611C934.716 598.595 935.577 599.506 936.758 600.342C937.938 601.178 939.537 601.941 941.554 602.63C943.621 603.318 946.154 603.983 949.155 604.622C955.108 605.803 960.299 607.377 964.727 609.345C969.204 611.264 972.697 613.822 975.206 617.02C977.715 620.218 978.97 624.301 978.97 629.27C978.97 632.813 978.207 636.06 976.682 639.012C975.157 641.914 972.943 644.448 970.04 646.613C967.137 648.778 963.669 650.475 959.635 651.705C955.6 652.886 951.05 653.476 945.982 653.476C938.652 653.476 932.453 652.172 927.385 649.565C922.318 646.908 918.48 643.563 915.873 639.528C913.265 635.445 911.962 631.214 911.962 626.835H930.632C930.78 629.935 931.616 632.419 933.141 634.289C934.667 636.158 936.585 637.511 938.898 638.347C941.259 639.135 943.744 639.528 946.351 639.528C949.303 639.528 951.788 639.135 953.805 638.347C955.822 637.511 957.347 636.404 958.38 635.027C959.413 633.6 959.93 631.976 959.93 630.156ZM1013.29 538.574V652H993.803V538.574H1013.29ZM1063.32 572.151L1028.56 611.19L1009.74 630.304L1003.54 615.175L1018.08 596.873L1039.78 572.151H1063.32ZM1043.39 652L1018.67 614.806L1031.66 602.187L1065.98 652H1043.39Z" fill="#FF5722"/>
</svg>
